<?xml version="1.0" encoding="utf-8"?>
<!-- Generator: Adobe Illustrator 15.0.0, SVG Export Plug-In  -->
<!DOCTYPE svg PUBLIC "-//W3C//DTD SVG 1.1//EN" "http://www.w3.org/Graphics/SVG/1.1/DTD/svg11.dtd" [
	<!ENTITY ns_flows "http://ns.adobe.com/Flows/1.0/">
]>
<svg version="1.1"
	 xmlns="http://www.w3.org/2000/svg" xmlns:xlink="http://www.w3.org/1999/xlink" xmlns:a="http://ns.adobe.com/AdobeSVGViewerExtensions/3.0/"
	 x="0px" y="0px" width="124px" height="31px" viewBox="-0.9 -0.1 124 31" enable-background="new -0.9 -0.1 124 31"
	 xml:space="preserve">
<defs>
</defs>
<path fill="#FFFFFF" d="M31.5,23.8c-1,0-1.9-0.2-2.7-0.6c-0.8-0.4-1.6-0.9-2.2-1.6c-0.6-0.7-1.1-1.4-1.4-2.3
	c-0.3-0.9-0.5-1.8-0.5-2.8c0-1,0.2-1.9,0.5-2.8c0.3-0.9,0.8-1.6,1.4-2.3c0.6-0.6,1.3-1.2,2.2-1.5c0.8-0.4,1.7-0.6,2.7-0.6
	c1,0,1.9,0.2,2.7,0.6c0.8,0.4,1.5,0.9,2.1,1.6c0.6,0.6,1.1,1.4,1.4,2.3c0.3,0.9,0.5,1.8,0.5,2.7c0,0.1,0,0.2,0,0.3
	c0,0.1,0,0.2,0,0.3H26c0,0.8,0.2,1.5,0.6,2.2c0.3,0.7,0.7,1.3,1.2,1.8c0.5,0.5,1,0.9,1.7,1.2c0.6,0.3,1.3,0.4,2.1,0.4
	c0.5,0,1-0.1,1.4-0.2c0.5-0.1,0.9-0.3,1.3-0.5c0.4-0.2,0.8-0.5,1.1-0.8c0.3-0.3,1.1-1.2,1.3-2.7l1.3,0c-0.3,1.8-1.2,2.9-1.6,3.3
	c-0.4,0.4-0.8,0.8-1.3,1.1c-0.5,0.3-1.1,0.5-1.7,0.7C32.8,23.7,32.1,23.8,31.5,23.8z M36.9,16.1c0-0.8-0.2-1.6-0.5-2.2
	c-0.3-0.7-0.7-1.3-1.2-1.7c-0.5-0.5-1-0.9-1.7-1.1c-0.6-0.3-1.3-0.4-2.1-0.4c-0.7,0-1.4,0.1-2.1,0.4c-0.6,0.3-1.2,0.7-1.7,1.1
	c-0.5,0.5-0.9,1.1-1.2,1.8c-0.3,0.7-0.5,1.4-0.5,2.2H36.9L36.9,16.1z"/>
<path fill="#FFFFFF" d="M80.8,23.8c-1,0-1.9-0.2-2.7-0.6c-0.8-0.4-1.6-0.9-2.2-1.6c-0.6-0.7-1.1-1.4-1.4-2.3
	c-0.3-0.9-0.5-1.8-0.5-2.8c0-1,0.2-1.9,0.5-2.8c0.3-0.9,0.8-1.6,1.4-2.3c0.6-0.6,1.3-1.2,2.2-1.5c0.8-0.4,1.7-0.6,2.7-0.6
	c1,0,1.9,0.2,2.7,0.6c0.8,0.4,1.5,0.9,2.1,1.6c0.6,0.6,1.1,1.4,1.4,2.3c0.3,0.9,0.5,1.8,0.5,2.7c0,0.1,0,0.2,0,0.3
	c0,0.1,0,0.2,0,0.3H75.4c0,0.8,0.2,1.5,0.6,2.2c0.3,0.7,0.7,1.3,1.2,1.8c0.5,0.5,1,0.9,1.7,1.2c0.6,0.3,1.3,0.4,2.1,0.4
	c0.5,0,1-0.1,1.4-0.2c0.5-0.1,0.9-0.3,1.3-0.5c0.4-0.2,0.8-0.5,1.1-0.8c0.3-0.3,1.1-1.2,1.3-2.7l1.3,0c-0.3,1.8-1.2,2.9-1.6,3.3
	c-0.4,0.4-0.8,0.8-1.3,1.1s-1.1,0.5-1.7,0.7C82.1,23.7,81.5,23.8,80.8,23.8z M86.3,16.1c0-0.8-0.2-1.6-0.5-2.2
	c-0.3-0.7-0.7-1.3-1.2-1.7c-0.5-0.5-1-0.9-1.7-1.1c-0.6-0.3-1.3-0.4-2.1-0.4c-0.7,0-1.4,0.1-2.1,0.4c-0.6,0.3-1.2,0.7-1.7,1.1
	c-0.5,0.5-0.9,1.1-1.2,1.8c-0.3,0.7-0.5,1.4-0.5,2.2H86.3L86.3,16.1z"/>
<path fill="#FFFFFF" d="M102.7,23.8c-1,0-1.9-0.2-2.7-0.6c-0.8-0.4-1.6-0.9-2.2-1.6c-0.6-0.7-1.1-1.4-1.4-2.3
	c-0.3-0.9-0.5-1.8-0.5-2.8c0-1,0.2-1.9,0.5-2.8c0.3-0.9,0.8-1.6,1.4-2.3c0.6-0.6,1.3-1.2,2.2-1.5s1.7-0.6,2.7-0.6
	c1,0,1.9,0.2,2.7,0.6c0.8,0.4,1.5,0.9,2.1,1.6c0.6,0.6,1.1,1.4,1.4,2.3c0.3,0.9,0.5,1.8,0.5,2.7c0,0.1,0,0.2,0,0.3
	c0,0.1,0,0.2,0,0.3H97.3c0,0.8,0.2,1.5,0.6,2.2c0.3,0.7,0.7,1.3,1.2,1.8c0.5,0.5,1,0.9,1.7,1.2c0.6,0.3,1.3,0.4,2.1,0.4
	c0.5,0,1-0.1,1.4-0.2c0.5-0.1,0.9-0.3,1.3-0.5c0.4-0.2,0.8-0.5,1.1-0.8c0.3-0.3,1.1-1.2,1.3-2.7l1.3,0c-0.3,1.8-1.2,2.9-1.6,3.3
	c-0.4,0.4-0.8,0.8-1.3,1.1s-1.1,0.5-1.7,0.7C104,23.7,103.4,23.8,102.7,23.8z M108.2,16.1c0-0.8-0.2-1.6-0.5-2.2
	c-0.3-0.7-0.7-1.3-1.2-1.7c-0.5-0.5-1-0.9-1.7-1.1c-0.6-0.3-1.3-0.4-2.1-0.4c-0.7,0-1.4,0.1-2.1,0.4c-0.6,0.3-1.2,0.7-1.7,1.1
	c-0.5,0.5-0.9,1.1-1.2,1.8c-0.3,0.7-0.5,1.4-0.5,2.2H108.2L108.2,16.1z"/>
<path fill="#FFFFFF" d="M72.4,14.7L72.4,14.7L72.4,14.7c0-0.7-0.2-1.7-0.9-2.6c0,0-1.8-2.8-6.3-2.6c0,0-2.2,0.1-3.3,1.5
	c-1.2-1.3-3.3-1.5-3.3-1.5c-4.5-0.1-6.3,2.6-6.3,2.6c-1,1.3-0.9,2.9-0.8,3.2v8.5h1.3v-9.6c0.2-0.9,0.7-1.5,0.7-1.5
	c2-2.2,5.2-2,5.2-2c2.1,0.2,2.6,1.3,2.7,1.6v11.5h1.3V12.3c0.1-0.4,0.7-1.4,2.7-1.5c0,0,3.2-0.2,5.2,2c0,0,0.5,0.6,0.7,1.5v1
	c0,0,0,0,0,0l0,0v8.6h1.3v-8.8C72.4,15,72.4,14.8,72.4,14.7z"/>
<path fill="#FFFFFF" d="M90.4,10.7h5.5V9.5h-5.5V0h-1.3v9.4v1.3v6l0,0c0.1,6.7,6.8,7.1,6.8,7.1v-1.2c-5.2-0.4-5.5-4.9-5.5-5.7V10.7z
	"/>
<path fill="#FFFFFF" d="M21.2,11.5V9.4h-1.3v14.4h1.3V13.7c0.3-0.9,1.1-2.5,3.9-3v-0.1V9.4C25.1,9.4,22.7,9.6,21.2,11.5z"/>
<path fill="#FFFFFF" d="M112.3,11.5V9.4H111v14.4h1.3V13.7c0.3-0.9,1.1-2.5,3.9-3v-0.1V9.4C116.2,9.4,113.8,9.6,112.3,11.5z"/>
<path fill="#FFFFFF" d="M122.2,18.2c0,0.3-0.1,0.6-0.2,0.8c-0.1,0.3-0.3,0.5-0.5,0.7c-0.2,0.2-0.4,0.3-0.7,0.4
	c-0.3,0.1-0.5,0.2-0.8,0.2c-0.3,0-0.6,0-0.8-0.2c-0.3-0.1-0.5-0.3-0.7-0.4c-0.2-0.2-0.4-0.4-0.5-0.7c-0.1-0.3-0.2-0.5-0.2-0.8
	s0.1-0.6,0.2-0.8c0.1-0.3,0.3-0.5,0.5-0.7c0.2-0.2,0.4-0.3,0.7-0.4c0.3-0.1,0.5-0.2,0.8-0.2c0.3,0,0.6,0,0.8,0.2
	c0.3,0.1,0.5,0.3,0.7,0.4c0.2,0.2,0.4,0.4,0.5,0.7C122.1,17.7,122.2,17.9,122.2,18.2z M120,19.8c0.2,0,0.5,0,0.7-0.1
	c0.2-0.1,0.4-0.2,0.5-0.3c0.2-0.1,0.3-0.3,0.4-0.5c0.1-0.2,0.1-0.4,0.1-0.6c0-0.2,0-0.4-0.1-0.6c-0.1-0.2-0.2-0.3-0.4-0.5
	c-0.2-0.1-0.3-0.3-0.5-0.3c-0.2-0.1-0.4-0.1-0.7-0.1c-0.2,0-0.5,0-0.7,0.1c-0.2,0.1-0.4,0.2-0.5,0.3c-0.2,0.1-0.3,0.3-0.4,0.5
	c-0.1,0.2-0.1,0.4-0.1,0.6c0,0.2,0,0.4,0.1,0.6c0.1,0.2,0.2,0.3,0.4,0.5c0.2,0.1,0.3,0.3,0.5,0.3C119.5,19.7,119.7,19.8,120,19.8z"
	/>
<path fill="#FFFFFF" d="M121.6,20.6v1c0,0,0,1.7-1.7,1.6c0,0-1.4,0-1.5-1.6l0,0v-1h-0.6v1c0,0-0.1,2,2.1,2.2c0,0,2.2,0.1,2.3-2.2v-1
	H121.6L121.6,20.6z"/>
<path fill="#FFFFFF" d="M118.7,13h3.4v-0.6h-3.4c-0.1,0-0.3-0.2-0.4-0.7c0-0.6,0.1-1,0.4-1.3c0.2-0.2,0.4-0.3,0.6-0.3h2.8V9.5h-2.6
	c0,0-0.1,0-0.2,0h0l0,0c-0.3,0-0.8,0.1-1.1,0.6c-0.6,0.8-0.5,1.5-0.5,1.7c0,0.1,0.1,0.6,0.4,0.9c-0.3,0.3-0.4,0.8-0.4,0.9
	c0,0.2-0.1,0.9,0.5,1.7c0.5,0.7,1.2,0.6,1.3,0.6h2.6v-0.6h-2.8c-0.2,0-0.4-0.1-0.6-0.3c-0.2-0.3-0.4-0.8-0.4-1.3
	C118.4,13.1,118.6,13,118.7,13z"/>
<path fill="#FFFFFF" d="M13.3,16.1H17v5.2c-0.8,0.4-1.6,0.7-2.5,0.9c-0.9,0.2-1.8,0.3-2.6,0.3c-1.6,0-3-0.3-4.3-0.8
	c-1.3-0.5-2.4-1.3-3.3-2.3c-0.9-1-1.6-2.1-2.1-3.4c-0.5-1.3-0.7-2.6-0.7-4.1c0-1.5,0.3-2.9,0.8-4.2s1.3-2.5,2.3-3.4
	c1-1,2.1-1.8,3.4-2.3c1.3-0.6,2.6-0.8,4.1-0.8c1,0,2,0,3,0c0.9,0,2.4,0,3.3,0l0-1.3c-1,0-2.1,0-3.2,0c-1.2,0-2,0-3.1,0
	c-1.6,0-3.2,0.3-4.7,0.9C5.9,1.5,4.6,2.4,3.5,3.5C2.5,4.6,1.6,5.8,1,7.3c-0.6,1.5-1,3.1-1,4.7c0,1.6,0.3,3.2,0.8,4.6
	c0.6,1.4,1.4,2.7,2.4,3.7c1,1,2.3,1.9,3.8,2.5c1.5,0.6,3.1,0.9,4.9,0.9c1.2,0,2.3-0.2,3.4-0.4c0.6-0.2,1.1-0.3,1.6-0.6v1h1.3v-1.6
	l0,0v-7.3h-5L13.3,16.1L13.3,16.1z"/>
<polygon fill="#FFFFFF" points="49.9,9.5 44.5,21.5 39.2,9.5 37.9,9.5 43.9,22.9 40.7,30.1 42,30.1 44.5,24.4 45.2,22.9 51.2,9.5 
	"/>
</svg>
